<svg viewBox="0 0 270.30000554985486 48.805784425695805" preserveAspectRatio="xMidYMid meet" class="css-88gl6m" id="gdeebchh"><defs id="SvgjsDefs1310"></defs><g id="SvgjsG1311" featurekey="symbolFeature-0" transform="matrix(1.2396693172680298,0,0,1.2396693172680298,-16.363634751489837,-36.57024485940688)" fill="#fff"><title xmlns="http://www.w3.org/2000/svg">Artboard 4</title><polygon xmlns="http://www.w3.org/2000/svg" points="39.6 68.87 42.82 68.87 59.4 29.5 56.18 29.5 39.6 68.87"></polygon><polygon xmlns="http://www.w3.org/2000/svg" points="66 29.5 66 34.14 81.13 49.17 66 64.21 66 68.84 85.8 49.17 66 29.5"></polygon><polygon xmlns="http://www.w3.org/2000/svg" points="33 68.84 33 64.21 17.87 49.17 33 34.14 33 29.5 13.2 49.17 33 68.84"></polygon></g><g id="SvgjsG1312" featurekey="nameLeftFeature-0" transform="matrix(2.5714285714285716,0,0,2.5714285714285716,107.94285787854876,-8.42857142857143)" fill="#fff"><path d="M10.7 6 l0 2.68 l-3.48 0 l0 11.32 l-2.92 0 l0 -11.32 l-3.5 0 l0 -2.68 l9.9 0 z M23.72 20 l-3.1 0 l-2.98 -4.66 l-0.04 0 l-1.98 0 l0 4.66 l-2.92 0 l0 -14 l4.9 0 c3.14 0 5.18 1.9 5.18 4.76 c0 1.9 -0.92 3.32 -2.48 4.04 z M15.620000000000001 8.68 l0 4.14 l1.8 0 c1.44 0 2.44 -0.56 2.44 -2.06 c0 -1.48 -1 -2.08 -2.44 -2.08 l-1.8 0 z"></path></g><g id="SvgjsG1313" featurekey="nameRightFeature-0" transform="matrix(2.500000066227385,0,0,2.500000066227385,174.99999943706723,-7.500003245141858)" fill="#fff"><path d="M12.62 20 l-1.78 -3.98 l-8.04 0 l-1.78 3.98 l-0.62 0 l6.26 -14 l0.3 0 l6.28 14 l-0.62 0 z M3.04 15.46 l7.56 0 l-3.78 -8.46 z M26.22 18.5 c-1.3 1.08 -2.9 1.7 -4.62 1.7 c-3.44 0 -7.06 -2.98 -7.06 -7.2 s3.62 -7.2 7.06 -7.2 c1.7 0 3.28 0.6 4.58 1.66 l-0.4 0.46 c-1.18 -1 -2.64 -1.52 -4.12 -1.52 c-3.16 0 -6.54 2.68 -6.54 6.6 s3.38 6.6 6.54 6.6 c1.48 0 2.96 -0.52 4.12 -1.5 z M37.38 20 l-6.36 -6.98 l-2.32 2.44 l0 4.54 l-0.58 0 l0 -14 l0.58 0 l0 8.68 l8.24 -8.68 l0.76 0 l-6.3 6.64 l6.72 7.36 l-0.74 0 z"></path></g></svg>