<?xml version="1.0" encoding="UTF-8" standalone="no"?>
<svg xmlns="http://www.w3.org/2000/svg" version="1.1" viewBox="0.00 0.00 477.00 537.00">
<g stroke-width="2.00" fill="none" stroke-linecap="butt">
<path stroke="#8eacb6" vector-effect="non-scaling-stroke" d="
  M 282.47 188.35
  A 0.52 0.52 0.0 0 1 281.95 188.87
  L 211.53 188.90
  A 0.52 0.52 0.0 0 1 211.01 188.38
  L 211.00 23.01
  A 0.52 0.52 0.0 0 0 210.33 22.52
  L 44.72 71.14
  A 0.52 0.52 0.0 0 0 44.35 71.64
  L 44.36 469.25
  A 0.52 0.52 0.0 0 0 44.73 469.75
  L 91.33 483.34
  A 0.52 0.52 0.0 0 0 92.00 482.84
  L 92.00 109.63
  A 0.52 0.52 0.0 0 1 92.37 109.13
  L 161.08 88.62
  A 0.52 0.52 0.0 0 1 161.75 89.12
  L 161.75 236.95
  A 0.52 0.52 0.0 0 0 162.27 237.47
  L 330.78 237.47
  A 0.52 0.52 0.0 0 0 331.30 236.95
  L 331.35 90.41
  A 0.52 0.52 0.0 0 1 332.01 89.91
  L 401.39 110.09
  A 0.52 0.52 0.0 0 1 401.76 110.59
  L 401.76 482.16
  A 0.52 0.52 0.0 0 0 402.42 482.66
  L 449.67 469.78
  A 0.52 0.52 0.0 0 0 450.05 469.28
  L 450.05 70.63
  A 0.52 0.52 0.0 0 0 449.68 70.13
  L 283.14 21.53
  A 0.52 0.52 0.0 0 0 282.47 22.03
  L 282.47 188.35"
/>
<path stroke="#8eacb6" vector-effect="non-scaling-stroke" d="
  M 163.74 452.11
  A 0.51 0.51 0.0 0 1 163.09 452.60
  L 116.15 439.37
  A 0.51 0.51 0.0 0 0 115.50 439.86
  L 115.51 490.44
  A 0.51 0.51 0.0 0 0 115.88 490.93
  L 210.67 518.71
  A 0.51 0.51 0.0 0 0 211.32 518.22
  L 211.31 375.22
  A 0.51 0.51 0.0 0 1 211.82 374.71
  L 282.23 374.70
  A 0.51 0.51 0.0 0 1 282.74 375.21
  L 282.74 518.24
  A 0.51 0.51 0.0 0 0 283.39 518.73
  L 378.15 491.27
  A 0.51 0.51 0.0 0 0 378.52 490.78
  L 378.52 440.20
  A 0.51 0.51 0.0 0 0 377.88 439.71
  L 331.92 451.98
  A 0.51 0.51 0.0 0 1 331.28 451.49
  L 331.28 328.26
  A 0.51 0.51 0.0 0 0 330.77 327.75
  L 164.26 327.75
  A 0.51 0.51 0.0 0 0 163.75 328.26
  L 163.74 452.11"
/>
</g>
<path fill="#ffffff" d="
  M 0.00 0.00
  L 477.00 0.00
  L 477.00 537.00
  L 0.00 537.00
  L 0.00 0.00
  Z
  M 282.47 188.35
  A 0.52 0.52 0.0 0 1 281.95 188.87
  L 211.53 188.90
  A 0.52 0.52 0.0 0 1 211.01 188.38
  L 211.00 23.01
  A 0.52 0.52 0.0 0 0 210.33 22.52
  L 44.72 71.14
  A 0.52 0.52 0.0 0 0 44.35 71.64
  L 44.36 469.25
  A 0.52 0.52 0.0 0 0 44.73 469.75
  L 91.33 483.34
  A 0.52 0.52 0.0 0 0 92.00 482.84
  L 92.00 109.63
  A 0.52 0.52 0.0 0 1 92.37 109.13
  L 161.08 88.62
  A 0.52 0.52 0.0 0 1 161.75 89.12
  L 161.75 236.95
  A 0.52 0.52 0.0 0 0 162.27 237.47
  L 330.78 237.47
  A 0.52 0.52 0.0 0 0 331.30 236.95
  L 331.35 90.41
  A 0.52 0.52 0.0 0 1 332.01 89.91
  L 401.39 110.09
  A 0.52 0.52 0.0 0 1 401.76 110.59
  L 401.76 482.16
  A 0.52 0.52 0.0 0 0 402.42 482.66
  L 449.67 469.78
  A 0.52 0.52 0.0 0 0 450.05 469.28
  L 450.05 70.63
  A 0.52 0.52 0.0 0 0 449.68 70.13
  L 283.14 21.53
  A 0.52 0.52 0.0 0 0 282.47 22.03
  L 282.47 188.35
  Z
  M 163.74 452.11
  A 0.51 0.51 0.0 0 1 163.09 452.60
  L 116.15 439.37
  A 0.51 0.51 0.0 0 0 115.50 439.86
  L 115.51 490.44
  A 0.51 0.51 0.0 0 0 115.88 490.93
  L 210.67 518.71
  A 0.51 0.51 0.0 0 0 211.32 518.22
  L 211.31 375.22
  A 0.51 0.51 0.0 0 1 211.82 374.71
  L 282.23 374.70
  A 0.51 0.51 0.0 0 1 282.74 375.21
  L 282.74 518.24
  A 0.51 0.51 0.0 0 0 283.39 518.73
  L 378.15 491.27
  A 0.51 0.51 0.0 0 0 378.52 490.78
  L 378.52 440.20
  A 0.51 0.51 0.0 0 0 377.88 439.71
  L 331.92 451.98
  A 0.51 0.51 0.0 0 1 331.28 451.49
  L 331.28 328.26
  A 0.51 0.51 0.0 0 0 330.77 327.75
  L 164.26 327.75
  A 0.51 0.51 0.0 0 0 163.75 328.26
  L 163.74 452.11
  Z"
/>
<path fill="#1d596c" d="
  M 282.47 188.35
  L 282.47 22.03
  A 0.52 0.52 0.0 0 1 283.14 21.53
  L 449.68 70.13
  A 0.52 0.52 0.0 0 1 450.05 70.63
  L 450.05 469.28
  A 0.52 0.52 0.0 0 1 449.67 469.78
  L 402.42 482.66
  A 0.52 0.52 0.0 0 1 401.76 482.16
  L 401.76 110.59
  A 0.52 0.52 0.0 0 0 401.39 110.09
  L 332.01 89.91
  A 0.52 0.52 0.0 0 0 331.35 90.41
  L 331.30 236.95
  A 0.52 0.52 0.0 0 1 330.78 237.47
  L 162.27 237.47
  A 0.52 0.52 0.0 0 1 161.75 236.95
  L 161.75 89.12
  A 0.52 0.52 0.0 0 0 161.08 88.62
  L 92.37 109.13
  A 0.52 0.52 0.0 0 0 92.00 109.63
  L 92.00 482.84
  A 0.52 0.52 0.0 0 1 91.33 483.34
  L 44.73 469.75
  A 0.52 0.52 0.0 0 1 44.36 469.25
  L 44.35 71.64
  A 0.52 0.52 0.0 0 1 44.72 71.14
  L 210.33 22.52
  A 0.52 0.52 0.0 0 1 211.00 23.01
  L 211.01 188.38
  A 0.52 0.52 0.0 0 0 211.53 188.90
  L 281.95 188.87
  A 0.52 0.52 0.0 0 0 282.47 188.35
  Z"
/>
<path fill="#1d596c" d="
  M 163.74 452.11
  L 163.75 328.26
  A 0.51 0.51 0.0 0 1 164.26 327.75
  L 330.77 327.75
  A 0.51 0.51 0.0 0 1 331.28 328.26
  L 331.28 451.49
  A 0.51 0.51 0.0 0 0 331.92 451.98
  L 377.88 439.71
  A 0.51 0.51 0.0 0 1 378.52 440.20
  L 378.52 490.78
  A 0.51 0.51 0.0 0 1 378.15 491.27
  L 283.39 518.73
  A 0.51 0.51 0.0 0 1 282.74 518.24
  L 282.74 375.21
  A 0.51 0.51 0.0 0 0 282.23 374.70
  L 211.82 374.71
  A 0.51 0.51 0.0 0 0 211.31 375.22
  L 211.32 518.22
  A 0.51 0.51 0.0 0 1 210.67 518.71
  L 115.88 490.93
  A 0.51 0.51 0.0 0 1 115.51 490.44
  L 115.50 439.86
  A 0.51 0.51 0.0 0 1 116.15 439.37
  L 163.09 452.60
  A 0.51 0.51 0.0 0 0 163.74 452.11
  Z"
/>
</svg>
